<svg width="22.000000" height="9.000000" viewBox="0 0 22 9" fill="none" xmlns="http://www.w3.org/2000/svg" xmlns:xlink="http://www.w3.org/1999/xlink">
	<desc>
			Created with Pixso.
	</desc>
	<defs>
		<filter id="filter_1_159_dd" x="-0.500000" y="-0.500244" width="22.500000" height="9.500122" filterUnits="userSpaceOnUse" color-interpolation-filters="sRGB">
			<feFlood flood-opacity="0" result="BackgroundImageFix"/>
			<feColorMatrix in="SourceAlpha" type="matrix" values="0 0 0 0 0 0 0 0 0 0 0 0 0 0 0 0 0 0 127 0" result="hardAlpha"/>
			<feOffset dx="0" dy="4"/>
			<feGaussianBlur stdDeviation="1.33333"/>
			<feComposite in2="hardAlpha" operator="out" k2="-1" k3="1"/>
			<feColorMatrix type="matrix" values="0 0 0 0 0 0 0 0 0 0 0 0 0 0 0 0 0 0 0.25 0"/>
			<feBlend mode="normal" in2="BackgroundImageFix" result="effect_dropShadow_1"/>
			<feColorMatrix in="SourceAlpha" type="matrix" values="0 0 0 0 0 0 0 0 0 0 0 0 0 0 0 0 0 0 127 0" result="hardAlpha"/>
			<feOffset dx="0" dy="4"/>
			<feGaussianBlur stdDeviation="1.33333"/>
			<feComposite in2="hardAlpha" operator="out" k2="-1" k3="1"/>
			<feColorMatrix type="matrix" values="0 0 0 0 0 0 0 0 0 0 0 0 0 0 0 0 0 0 0.25 0"/>
			<feBlend mode="normal" in2="effect_dropShadow_1" result="effect_dropShadow_2"/>
			<feBlend mode="normal" in="SourceGraphic" in2="effect_dropShadow_2" result="shape"/>
		</filter>
	</defs>
	<g filter="url(#filter_1_159_dd)">
		<path id="Vector" d="M10.75 -0.51L11.12 -0.51L11.5 -0.51L17.25 -0.51C17.44 -0.51 17.63 -0.43 17.78 -0.29C17.92 -0.14 18 0.05 18 0.24C18 0.44 17.92 0.63 17.78 0.78C17.63 0.92 17.44 0.99 17.25 0.99L11.5 0.99L11.12 0.99L10.75 0.99L10.37 0.99L10 0.99L4.25 0.99C4.05 0.99 3.86 0.92 3.71 0.78C3.57 0.63 3.5 0.44 3.5 0.24C3.5 0.05 3.57 -0.14 3.71 -0.29C3.86 -0.43 4.05 -0.51 4.25 -0.51L10 -0.51L10.37 -0.51L10.75 -0.51Z" fill="#020A0A" fill-opacity="1.000000" fill-rule="nonzero"/>
	</g>
</svg>
