<svg width="14.000000" height="15.000000" viewBox="0 0 14 15" fill="none" xmlns="http://www.w3.org/2000/svg" xmlns:xlink="http://www.w3.org/1999/xlink">
	<desc>
			Created with Pixso.
	</desc>
	<defs/>
	<path id="Vector" d="M6.75 0C6.94 0 7.13 0.07 7.28 0.21C7.42 0.36 7.5 0.55 7.5 0.75L7.5 6.5L13.25 6.5C13.44 6.5 13.63 6.57 13.78 6.71C13.92 6.86 14 7.05 14 7.25C14 7.44 13.92 7.63 13.78 7.78C13.63 7.92 13.44 8 13.25 8L7.5 8L7.5 13.75C7.5 13.94 7.42 14.13 7.28 14.28C7.13 14.42 6.94 14.5 6.75 14.5C6.55 14.5 6.36 14.42 6.21 14.28C6.07 14.13 6 13.94 6 13.75L6 8L0.25 8C0.05 8 -0.14 7.92 -0.29 7.78C-0.43 7.63 -0.5 7.44 -0.5 7.25C-0.5 7.05 -0.43 6.86 -0.29 6.71C-0.14 6.57 0.05 6.5 0.25 6.5L6 6.5L6 0.75C6 0.55 6.07 0.36 6.21 0.21C6.36 0.07 6.55 0 6.75 0Z" fill="#020A0A" fill-opacity="1.000000" fill-rule="nonzero"/>
</svg>
